<?xml version="1.0" encoding="us-ascii" standalone="no"?><svg xmlns="http://www.w3.org/2000/svg" xmlns:xlink="http://www.w3.org/1999/xlink" contentStyleType="text/css" height="718px" preserveAspectRatio="none" style="width:1731px;height:718px;background:#FFFFFF;" version="1.1" viewBox="0 0 1731 718" width="1731px" zoomAndPan="magnify"><defs/><g><!--cluster React Native App--><g id="cluster_React Native App"><path d="M8.5,6 L132.5,6 A3.75,3.75 0 0 1 135,8.5 L142,28.4883 L908.5,28.4883 A2.5,2.5 0 0 1 911,30.9883 L911,709.12 A2.5,2.5 0 0 1 908.5,711.62 L8.5,711.62 A2.5,2.5 0 0 1 6,709.12 L6,8.5 A2.5,2.5 0 0 1 8.5,6 " fill="none" style="stroke:#000000;stroke-width:1.5;"/><line style="stroke:#000000;stroke-width:1.5;" x1="6" x2="142" y1="28.4883" y2="28.4883"/><text fill="#000000" font-family="sans-serif" font-size="14" font-weight="bold" lengthAdjust="spacing" textLength="123" x="10" y="21.5352">React Native App</text></g><!--cluster Firebase Authentication--><g id="cluster_Firebase Authentication"><path d="M937.5,392.42 L1109.5,392.42 A3.75,3.75 0 0 1 1112,394.92 L1119,414.9083 L1232.5,414.9083 A2.5,2.5 0 0 1 1235,417.4083 L1235,521.9 A2.5,2.5 0 0 1 1232.5,524.4 L937.5,524.4 A2.5,2.5 0 0 1 935,521.9 L935,394.92 A2.5,2.5 0 0 1 937.5,392.42 " fill="none" style="stroke:#000000;stroke-width:1.5;"/><line style="stroke:#000000;stroke-width:1.5;" x1="935" x2="1119" y1="414.9083" y2="414.9083"/><text fill="#000000" font-family="sans-serif" font-size="14" font-weight="bold" lengthAdjust="spacing" textLength="171" x="939" y="407.9552">Firebase Authentication</text></g><!--cluster API Functions--><g id="cluster_API Functions"><path d="M937.5,587.89 L1037.5,587.89 A3.75,3.75 0 0 1 1040,590.39 L1047,610.3783 L1721.5,610.3783 A2.5,2.5 0 0 1 1724,612.8783 L1724,700.88 A2.5,2.5 0 0 1 1721.5,703.38 L937.5,703.38 A2.5,2.5 0 0 1 935,700.88 L935,590.39 A2.5,2.5 0 0 1 937.5,587.89 " fill="none" style="stroke:#000000;stroke-width:1.5;"/><line style="stroke:#000000;stroke-width:1.5;" x1="935" x2="1047" y1="610.3783" y2="610.3783"/><text fill="#000000" font-family="sans-serif" font-size="14" font-weight="bold" lengthAdjust="spacing" textLength="99" x="939" y="603.4252">API Functions</text></g><!--class App--><g id="elem_App"><rect codeLine="4" fill="#F1F1F1" height="97.4648" id="App" rx="2.5" ry="2.5" style="stroke:#181818;stroke-width:0.5;" width="155" x="193.5" y="41"/><ellipse cx="252.75" cy="57" fill="#ADD1B2" rx="11" ry="11" style="stroke:#181818;stroke-width:1.0;"/><path d="M255.2231,63.1431 Q254.6421,63.4419 254.0029,63.5913 Q253.3638,63.7407 252.6582,63.7407 Q250.1514,63.7407 248.8315,62.0889 Q247.5117,60.437 247.5117,57.3159 Q247.5117,54.1865 248.8315,52.5347 Q250.1514,50.8828 252.6582,50.8828 Q253.3638,50.8828 254.0112,51.0322 Q254.6587,51.1816 255.2231,51.4805 L255.2231,54.2031 Q254.5923,53.6221 253.9988,53.3523 Q253.4053,53.0825 252.7744,53.0825 Q251.4297,53.0825 250.7449,54.1492 Q250.0601,55.2158 250.0601,57.3159 Q250.0601,59.4077 250.7449,60.4744 Q251.4297,61.541 252.7744,61.541 Q253.4053,61.541 253.9988,61.2712 Q254.5923,61.0015 255.2231,60.4204 Z " fill="#000000"/><text fill="#000000" font-family="sans-serif" font-size="14" lengthAdjust="spacing" textLength="28" x="273.25" y="62.291">App</text><line style="stroke:#181818;stroke-width:0.5;" x1="194.5" x2="347.5" y1="73" y2="73"/><line style="stroke:#181818;stroke-width:0.5;" x1="194.5" x2="347.5" y1="81" y2="81"/><ellipse cx="204.5" cy="94.7441" fill="#84BE84" rx="3" ry="3" style="stroke:#038048;stroke-width:1.0;"/><text fill="#000000" font-family="sans-serif" font-size="14" lengthAdjust="spacing" textLength="56" x="213.5" y="98.5352">render()</text><ellipse cx="204.5" cy="111.2324" fill="#84BE84" rx="3" ry="3" style="stroke:#038048;stroke-width:1.0;"/><text fill="#000000" font-family="sans-serif" font-size="14" lengthAdjust="spacing" textLength="129" x="213.5" y="115.0234">navigateToSignIn()</text><ellipse cx="204.5" cy="127.7207" fill="#84BE84" rx="3" ry="3" style="stroke:#038048;stroke-width:1.0;"/><text fill="#000000" font-family="sans-serif" font-size="14" lengthAdjust="spacing" textLength="126" x="213.5" y="131.5117">navigateToHome()</text></g><!--class SignIn--><g id="elem_SignIn"><rect codeLine="10" fill="#F1F1F1" height="113.9531" id="SignIn" rx="2.5" ry="2.5" style="stroke:#181818;stroke-width:0.5;" width="215" x="71.5" y="215.47"/><ellipse cx="153.25" cy="231.47" fill="#ADD1B2" rx="11" ry="11" style="stroke:#181818;stroke-width:1.0;"/><path d="M155.7231,237.6131 Q155.1421,237.9119 154.5029,238.0613 Q153.8638,238.2107 153.1582,238.2107 Q150.6514,238.2107 149.3315,236.5589 Q148.0117,234.907 148.0117,231.7859 Q148.0117,228.6565 149.3315,227.0047 Q150.6514,225.3528 153.1582,225.3528 Q153.8638,225.3528 154.5112,225.5022 Q155.1587,225.6516 155.7231,225.9505 L155.7231,228.6731 Q155.0923,228.0921 154.4988,227.8223 Q153.9053,227.5525 153.2744,227.5525 Q151.9297,227.5525 151.2449,228.6192 Q150.5601,229.6858 150.5601,231.7859 Q150.5601,233.8777 151.2449,234.9444 Q151.9297,236.011 153.2744,236.011 Q153.9053,236.011 154.4988,235.7412 Q155.0923,235.4715 155.7231,234.8904 Z " fill="#000000"/><text fill="#000000" font-family="sans-serif" font-size="14" lengthAdjust="spacing" textLength="43" x="173.75" y="236.761">SignIn</text><line style="stroke:#181818;stroke-width:0.5;" x1="72.5" x2="285.5" y1="247.47" y2="247.47"/><line style="stroke:#181818;stroke-width:0.5;" x1="72.5" x2="285.5" y1="255.47" y2="255.47"/><ellipse cx="82.5" cy="269.2141" fill="#84BE84" rx="3" ry="3" style="stroke:#038048;stroke-width:1.0;"/><text fill="#000000" font-family="sans-serif" font-size="14" lengthAdjust="spacing" textLength="56" x="91.5" y="273.0052">render()</text><ellipse cx="82.5" cy="285.7024" fill="#84BE84" rx="3" ry="3" style="stroke:#038048;stroke-width:1.0;"/><text fill="#000000" font-family="sans-serif" font-size="14" lengthAdjust="spacing" textLength="57" x="91.5" y="289.4934">submit()</text><ellipse cx="82.5" cy="302.1907" fill="#84BE84" rx="3" ry="3" style="stroke:#038048;stroke-width:1.0;"/><text fill="#000000" font-family="sans-serif" font-size="14" lengthAdjust="spacing" textLength="126" x="91.5" y="305.9817">navigateToHome()</text><ellipse cx="82.5" cy="318.679" fill="#84BE84" rx="3" ry="3" style="stroke:#038048;stroke-width:1.0;"/><text fill="#000000" font-family="sans-serif" font-size="14" lengthAdjust="spacing" textLength="189" x="91.5" y="322.47">showError(message: string)</text></g><!--class SignUp--><g id="elem_SignUp"><rect codeLine="17" fill="#F1F1F1" height="113.9531" id="SignUp" rx="2.5" ry="2.5" style="stroke:#181818;stroke-width:0.5;" width="215" x="321.5" y="215.47"/><ellipse cx="400.25" cy="231.47" fill="#ADD1B2" rx="11" ry="11" style="stroke:#181818;stroke-width:1.0;"/><path d="M402.7231,237.6131 Q402.1421,237.9119 401.5029,238.0613 Q400.8638,238.2107 400.1582,238.2107 Q397.6514,238.2107 396.3315,236.5589 Q395.0117,234.907 395.0117,231.7859 Q395.0117,228.6565 396.3315,227.0047 Q397.6514,225.3528 400.1582,225.3528 Q400.8638,225.3528 401.5112,225.5022 Q402.1587,225.6516 402.7231,225.9505 L402.7231,228.6731 Q402.0923,228.0921 401.4988,227.8223 Q400.9053,227.5525 400.2744,227.5525 Q398.9297,227.5525 398.2449,228.6192 Q397.5601,229.6858 397.5601,231.7859 Q397.5601,233.8777 398.2449,234.9444 Q398.9297,236.011 400.2744,236.011 Q400.9053,236.011 401.4988,235.7412 Q402.0923,235.4715 402.7231,234.8904 Z " fill="#000000"/><text fill="#000000" font-family="sans-serif" font-size="14" lengthAdjust="spacing" textLength="49" x="420.75" y="236.761">SignUp</text><line style="stroke:#181818;stroke-width:0.5;" x1="322.5" x2="535.5" y1="247.47" y2="247.47"/><line style="stroke:#181818;stroke-width:0.5;" x1="322.5" x2="535.5" y1="255.47" y2="255.47"/><ellipse cx="332.5" cy="269.2141" fill="#84BE84" rx="3" ry="3" style="stroke:#038048;stroke-width:1.0;"/><text fill="#000000" font-family="sans-serif" font-size="14" lengthAdjust="spacing" textLength="56" x="341.5" y="273.0052">render()</text><ellipse cx="332.5" cy="285.7024" fill="#84BE84" rx="3" ry="3" style="stroke:#038048;stroke-width:1.0;"/><text fill="#000000" font-family="sans-serif" font-size="14" lengthAdjust="spacing" textLength="57" x="341.5" y="289.4934">submit()</text><ellipse cx="332.5" cy="302.1907" fill="#84BE84" rx="3" ry="3" style="stroke:#038048;stroke-width:1.0;"/><text fill="#000000" font-family="sans-serif" font-size="14" lengthAdjust="spacing" textLength="126" x="341.5" y="305.9817">navigateToHome()</text><ellipse cx="332.5" cy="318.679" fill="#84BE84" rx="3" ry="3" style="stroke:#038048;stroke-width:1.0;"/><text fill="#000000" font-family="sans-serif" font-size="14" lengthAdjust="spacing" textLength="189" x="341.5" y="322.47">showError(message: string)</text></g><!--class CustomButton--><g id="elem_CustomButton"><rect codeLine="24" fill="#F1F1F1" height="80.9766" id="CustomButton" rx="2.5" ry="2.5" style="stroke:#181818;stroke-width:0.5;" width="130" x="224" y="427.42"/><ellipse cx="239" cy="443.42" fill="#ADD1B2" rx="11" ry="11" style="stroke:#181818;stroke-width:1.0;"/><path d="M241.4731,449.5631 Q240.8921,449.8619 240.2529,450.0113 Q239.6138,450.1607 238.9082,450.1607 Q236.4014,450.1607 235.0815,448.5089 Q233.7617,446.857 233.7617,443.7359 Q233.7617,440.6065 235.0815,438.9547 Q236.4014,437.3028 238.9082,437.3028 Q239.6138,437.3028 240.2612,437.4522 Q240.9087,437.6016 241.4731,437.9005 L241.4731,440.6231 Q240.8423,440.0421 240.2488,439.7723 Q239.6553,439.5025 239.0244,439.5025 Q237.6797,439.5025 236.9949,440.5692 Q236.3101,441.6358 236.3101,443.7359 Q236.3101,445.8277 236.9949,446.8944 Q237.6797,447.961 239.0244,447.961 Q239.6553,447.961 240.2488,447.6912 Q240.8423,447.4215 241.4731,446.8404 Z " fill="#000000"/><text fill="#000000" font-family="sans-serif" font-size="14" lengthAdjust="spacing" textLength="98" x="253" y="448.711">CustomButton</text><line style="stroke:#181818;stroke-width:0.5;" x1="225" x2="353" y1="459.42" y2="459.42"/><line style="stroke:#181818;stroke-width:0.5;" x1="225" x2="353" y1="467.42" y2="467.42"/><ellipse cx="235" cy="481.1641" fill="#84BE84" rx="3" ry="3" style="stroke:#038048;stroke-width:1.0;"/><text fill="#000000" font-family="sans-serif" font-size="14" lengthAdjust="spacing" textLength="56" x="244" y="484.9552">render()</text><ellipse cx="235" cy="497.6524" fill="#84BE84" rx="3" ry="3" style="stroke:#038048;stroke-width:1.0;"/><text fill="#000000" font-family="sans-serif" font-size="14" lengthAdjust="spacing" textLength="93" x="244" y="501.4434">handlePress()</text></g><!--class FormField--><g id="elem_FormField"><rect codeLine="29" fill="#F1F1F1" height="80.9766" id="FormField" rx="2.5" ry="2.5" style="stroke:#181818;stroke-width:0.5;" width="167" x="21.5" y="427.42"/><ellipse cx="66.25" cy="443.42" fill="#ADD1B2" rx="11" ry="11" style="stroke:#181818;stroke-width:1.0;"/><path d="M68.7231,449.5631 Q68.1421,449.8619 67.5029,450.0113 Q66.8638,450.1607 66.1582,450.1607 Q63.6514,450.1607 62.3315,448.5089 Q61.0117,446.857 61.0117,443.7359 Q61.0117,440.6065 62.3315,438.9547 Q63.6514,437.3028 66.1582,437.3028 Q66.8638,437.3028 67.5112,437.4522 Q68.1587,437.6016 68.7231,437.9005 L68.7231,440.6231 Q68.0923,440.0421 67.4988,439.7723 Q66.9053,439.5025 66.2744,439.5025 Q64.9297,439.5025 64.2449,440.5692 Q63.5601,441.6358 63.5601,443.7359 Q63.5601,445.8277 64.2449,446.8944 Q64.9297,447.961 66.2744,447.961 Q66.9053,447.961 67.4988,447.6912 Q68.0923,447.4215 68.7231,446.8404 Z " fill="#000000"/><text fill="#000000" font-family="sans-serif" font-size="14" lengthAdjust="spacing" textLength="69" x="86.75" y="448.711">FormField</text><line style="stroke:#181818;stroke-width:0.5;" x1="22.5" x2="187.5" y1="459.42" y2="459.42"/><line style="stroke:#181818;stroke-width:0.5;" x1="22.5" x2="187.5" y1="467.42" y2="467.42"/><ellipse cx="32.5" cy="481.1641" fill="#84BE84" rx="3" ry="3" style="stroke:#038048;stroke-width:1.0;"/><text fill="#000000" font-family="sans-serif" font-size="14" lengthAdjust="spacing" textLength="56" x="41.5" y="484.9552">render()</text><ellipse cx="32.5" cy="497.6524" fill="#84BE84" rx="3" ry="3" style="stroke:#038048;stroke-width:1.0;"/><text fill="#000000" font-family="sans-serif" font-size="14" lengthAdjust="spacing" textLength="141" x="41.5" y="501.4434">handleChangeText()</text></g><!--class AuthContext--><g id="elem_AuthContext"><rect codeLine="79" fill="#F1F1F1" height="113.9531" id="AuthContext" rx="2.5" ry="2.5" style="stroke:#181818;stroke-width:0.5;" width="120" x="389" y="410.93"/><ellipse cx="404" cy="426.93" fill="#ADD1B2" rx="11" ry="11" style="stroke:#181818;stroke-width:1.0;"/><path d="M406.4731,433.0731 Q405.8921,433.3719 405.2529,433.5213 Q404.6138,433.6707 403.9082,433.6707 Q401.4014,433.6707 400.0815,432.0189 Q398.7617,430.367 398.7617,427.2459 Q398.7617,424.1165 400.0815,422.4647 Q401.4014,420.8128 403.9082,420.8128 Q404.6138,420.8128 405.2612,420.9622 Q405.9087,421.1116 406.4731,421.4105 L406.4731,424.1331 Q405.8423,423.5521 405.2488,423.2823 Q404.6553,423.0125 404.0244,423.0125 Q402.6797,423.0125 401.9949,424.0792 Q401.3101,425.1458 401.3101,427.2459 Q401.3101,429.3377 401.9949,430.4044 Q402.6797,431.471 404.0244,431.471 Q404.6553,431.471 405.2488,431.2012 Q405.8423,430.9315 406.4731,430.3504 Z " fill="#000000"/><text fill="#000000" font-family="sans-serif" font-size="14" lengthAdjust="spacing" textLength="88" x="418" y="432.221">AuthContext</text><line style="stroke:#181818;stroke-width:0.5;" x1="390" x2="508" y1="442.93" y2="442.93"/><ellipse cx="400" cy="456.6741" fill="none" rx="3" ry="3" style="stroke:#038048;stroke-width:1.0;"/><text fill="#000000" font-family="sans-serif" font-size="14" lengthAdjust="spacing" textLength="30" x="409" y="460.4652">user</text><ellipse cx="400" cy="473.1624" fill="none" rx="3" ry="3" style="stroke:#038048;stroke-width:1.0;"/><text fill="#000000" font-family="sans-serif" font-size="14" lengthAdjust="spacing" textLength="30" x="409" y="476.9534">user</text><line style="stroke:#181818;stroke-width:0.5;" x1="390" x2="508" y1="483.9066" y2="483.9066"/><ellipse cx="400" cy="497.6507" fill="#84BE84" rx="3" ry="3" style="stroke:#038048;stroke-width:1.0;"/><text fill="#000000" font-family="sans-serif" font-size="14" lengthAdjust="spacing" textLength="67" x="409" y="501.4417">useAuth()</text><ellipse cx="400" cy="514.139" fill="#84BE84" rx="3" ry="3" style="stroke:#038048;stroke-width:1.0;"/><text fill="#000000" font-family="sans-serif" font-size="14" lengthAdjust="spacing" textLength="67" x="409" y="517.93">useAuth()</text></g><!--class ButtonRow--><g id="elem_ButtonRow"><rect codeLine="62" fill="#F1F1F1" height="80.9766" id="ButtonRow" rx="2.5" ry="2.5" style="stroke:#181818;stroke-width:0.5;" width="127" x="544.5" y="427.42"/><ellipse cx="568.95" cy="443.42" fill="#ADD1B2" rx="11" ry="11" style="stroke:#181818;stroke-width:1.0;"/><path d="M571.4231,449.5631 Q570.8421,449.8619 570.2029,450.0113 Q569.5638,450.1607 568.8582,450.1607 Q566.3514,450.1607 565.0315,448.5089 Q563.7117,446.857 563.7117,443.7359 Q563.7117,440.6065 565.0315,438.9547 Q566.3514,437.3028 568.8582,437.3028 Q569.5638,437.3028 570.2112,437.4522 Q570.8587,437.6016 571.4231,437.9005 L571.4231,440.6231 Q570.7923,440.0421 570.1988,439.7723 Q569.6053,439.5025 568.9744,439.5025 Q567.6297,439.5025 566.9449,440.5692 Q566.2601,441.6358 566.2601,443.7359 Q566.2601,445.8277 566.9449,446.8944 Q567.6297,447.961 568.9744,447.961 Q569.6053,447.961 570.1988,447.6912 Q570.7923,447.4215 571.4231,446.8404 Z " fill="#000000"/><text fill="#000000" font-family="sans-serif" font-size="14" lengthAdjust="spacing" textLength="74" x="585.05" y="448.711">ButtonRow</text><line style="stroke:#181818;stroke-width:0.5;" x1="545.5" x2="670.5" y1="459.42" y2="459.42"/><ellipse cx="555.5" cy="473.1641" fill="none" rx="3" ry="3" style="stroke:#038048;stroke-width:1.0;"/><text fill="#000000" font-family="sans-serif" font-size="14" lengthAdjust="spacing" textLength="101" x="564.5" y="476.9552">props: buttons</text><line style="stroke:#181818;stroke-width:0.5;" x1="545.5" x2="670.5" y1="483.9083" y2="483.9083"/><ellipse cx="555.5" cy="497.6524" fill="#84BE84" rx="3" ry="3" style="stroke:#038048;stroke-width:1.0;"/><text fill="#000000" font-family="sans-serif" font-size="14" lengthAdjust="spacing" textLength="56" x="564.5" y="501.4434">render()</text></g><!--class Button--><g id="elem_Button"><rect codeLine="67" fill="#F1F1F1" height="80.9766" id="Button" rx="2.5" ry="2.5" style="stroke:#181818;stroke-width:0.5;" width="90" x="563" y="614.64"/><ellipse cx="583.85" cy="630.64" fill="#ADD1B2" rx="11" ry="11" style="stroke:#181818;stroke-width:1.0;"/><path d="M586.3231,636.7831 Q585.7421,637.0819 585.1029,637.2313 Q584.4638,637.3807 583.7582,637.3807 Q581.2514,637.3807 579.9315,635.7289 Q578.6117,634.077 578.6117,630.9559 Q578.6117,627.8265 579.9315,626.1747 Q581.2514,624.5228 583.7582,624.5228 Q584.4638,624.5228 585.1112,624.6722 Q585.7587,624.8216 586.3231,625.1205 L586.3231,627.8431 Q585.6923,627.2621 585.0988,626.9923 Q584.5053,626.7225 583.8744,626.7225 Q582.5297,626.7225 581.8449,627.7892 Q581.1601,628.8558 581.1601,630.9559 Q581.1601,633.0477 581.8449,634.1144 Q582.5297,635.181 583.8744,635.181 Q584.5053,635.181 585.0988,634.9112 Q585.6923,634.6415 586.3231,634.0604 Z " fill="#000000"/><text fill="#000000" font-family="sans-serif" font-size="14" lengthAdjust="spacing" textLength="45" x="599.15" y="635.931">Button</text><line style="stroke:#181818;stroke-width:0.5;" x1="564" x2="652" y1="646.64" y2="646.64"/><ellipse cx="574" cy="660.3841" fill="none" rx="3" ry="3" style="stroke:#038048;stroke-width:1.0;"/><text fill="#000000" font-family="sans-serif" font-size="14" lengthAdjust="spacing" textLength="26" x="583" y="664.1752">title</text><line style="stroke:#181818;stroke-width:0.5;" x1="564" x2="652" y1="671.1283" y2="671.1283"/><ellipse cx="574" cy="684.8724" fill="#84BE84" rx="3" ry="3" style="stroke:#038048;stroke-width:1.0;"/><text fill="#000000" font-family="sans-serif" font-size="14" lengthAdjust="spacing" textLength="64" x="583" y="688.6634">onPress()</text></g><!--class API--><g id="elem_API"><rect codeLine="72" fill="#F1F1F1" height="113.9531" id="API" rx="2.5" ry="2.5" style="stroke:#181818;stroke-width:0.5;" width="188" x="707" y="410.93"/><ellipse cx="785.75" cy="426.93" fill="#ADD1B2" rx="11" ry="11" style="stroke:#181818;stroke-width:1.0;"/><path d="M788.2231,433.0731 Q787.6421,433.3719 787.0029,433.5213 Q786.3638,433.6707 785.6582,433.6707 Q783.1514,433.6707 781.8315,432.0189 Q780.5117,430.367 780.5117,427.2459 Q780.5117,424.1165 781.8315,422.4647 Q783.1514,420.8128 785.6582,420.8128 Q786.3638,420.8128 787.0112,420.9622 Q787.6587,421.1116 788.2231,421.4105 L788.2231,424.1331 Q787.5923,423.5521 786.9988,423.2823 Q786.4053,423.0125 785.7744,423.0125 Q784.4297,423.0125 783.7449,424.0792 Q783.0601,425.1458 783.0601,427.2459 Q783.0601,429.3377 783.7449,430.4044 Q784.4297,431.471 785.7744,431.471 Q786.4053,431.471 786.9988,431.2012 Q787.5923,430.9315 788.2231,430.3504 Z " fill="#000000"/><text fill="#000000" font-family="sans-serif" font-size="14" lengthAdjust="spacing" textLength="22" x="806.25" y="432.221">API</text><line style="stroke:#181818;stroke-width:0.5;" x1="708" x2="894" y1="442.93" y2="442.93"/><line style="stroke:#181818;stroke-width:0.5;" x1="708" x2="894" y1="450.93" y2="450.93"/><ellipse cx="718" cy="464.6741" fill="#84BE84" rx="3" ry="3" style="stroke:#038048;stroke-width:1.0;"/><text fill="#000000" font-family="sans-serif" font-size="14" lengthAdjust="spacing" textLength="114" x="727" y="468.4652">fetchCovidData()</text><ellipse cx="718" cy="481.1624" fill="#84BE84" rx="3" ry="3" style="stroke:#038048;stroke-width:1.0;"/><text fill="#000000" font-family="sans-serif" font-size="14" lengthAdjust="spacing" textLength="117" x="727" y="484.9534">fetchPollenData()</text><ellipse cx="718" cy="497.6507" fill="#84BE84" rx="3" ry="3" style="stroke:#038048;stroke-width:1.0;"/><text fill="#000000" font-family="sans-serif" font-size="14" lengthAdjust="spacing" textLength="156" x="727" y="501.4417">fetchAirPollutionData()</text><ellipse cx="718" cy="514.139" fill="#84BE84" rx="3" ry="3" style="stroke:#038048;stroke-width:1.0;"/><text fill="#000000" font-family="sans-serif" font-size="14" lengthAdjust="spacing" textLength="162" x="727" y="517.93">fetchWaterQualityData()</text></g><!--class Home--><g id="elem_Home"><rect fill="#F1F1F1" height="48" id="Home" rx="2.5" ry="2.5" style="stroke:#181818;stroke-width:0.5;" width="72" x="572" y="248.45"/><ellipse cx="587" cy="264.45" fill="#ADD1B2" rx="11" ry="11" style="stroke:#181818;stroke-width:1.0;"/><path d="M589.4731,270.5931 Q588.8921,270.8919 588.2529,271.0413 Q587.6138,271.1907 586.9082,271.1907 Q584.4014,271.1907 583.0815,269.5389 Q581.7617,267.887 581.7617,264.7659 Q581.7617,261.6365 583.0815,259.9847 Q584.4014,258.3328 586.9082,258.3328 Q587.6138,258.3328 588.2612,258.4822 Q588.9087,258.6316 589.4731,258.9305 L589.4731,261.6531 Q588.8423,261.0721 588.2488,260.8023 Q587.6553,260.5325 587.0244,260.5325 Q585.6797,260.5325 584.9949,261.5992 Q584.3101,262.6658 584.3101,264.7659 Q584.3101,266.8577 584.9949,267.9244 Q585.6797,268.991 587.0244,268.991 Q587.6553,268.991 588.2488,268.7212 Q588.8423,268.4515 589.4731,267.8704 Z " fill="#000000"/><text fill="#000000" font-family="sans-serif" font-size="14" lengthAdjust="spacing" textLength="40" x="601" y="269.741">Home</text><line style="stroke:#181818;stroke-width:0.5;" x1="573" x2="643" y1="280.45" y2="280.45"/><line style="stroke:#181818;stroke-width:0.5;" x1="573" x2="643" y1="288.45" y2="288.45"/></g><!--class FIREBASE_AUTH--><g id="elem_FIREBASE_AUTH"><rect codeLine="51" fill="#F1F1F1" height="80.9766" id="FIREBASE_AUTH" rx="2.5" ry="2.5" style="stroke:#181818;stroke-width:0.5;" width="269" x="950.5" y="427.42"/><ellipse cx="1026.25" cy="443.42" fill="#ADD1B2" rx="11" ry="11" style="stroke:#181818;stroke-width:1.0;"/><path d="M1028.7231,449.5631 Q1028.1421,449.8619 1027.5029,450.0113 Q1026.8638,450.1607 1026.1582,450.1607 Q1023.6514,450.1607 1022.3315,448.5089 Q1021.0117,446.857 1021.0117,443.7359 Q1021.0117,440.6065 1022.3315,438.9547 Q1023.6514,437.3028 1026.1582,437.3028 Q1026.8638,437.3028 1027.5112,437.4522 Q1028.1587,437.6016 1028.7231,437.9005 L1028.7231,440.6231 Q1028.0923,440.0421 1027.4988,439.7723 Q1026.9053,439.5025 1026.2744,439.5025 Q1024.9297,439.5025 1024.2449,440.5692 Q1023.5601,441.6358 1023.5601,443.7359 Q1023.5601,445.8277 1024.2449,446.8944 Q1024.9297,447.961 1026.2744,447.961 Q1026.9053,447.961 1027.4988,447.6912 Q1028.0923,447.4215 1028.7231,446.8404 Z " fill="#000000"/><text fill="#000000" font-family="sans-serif" font-size="14" lengthAdjust="spacing" textLength="109" x="1046.75" y="448.711">FIREBASE_AUTH</text><line style="stroke:#181818;stroke-width:0.5;" x1="951.5" x2="1218.5" y1="459.42" y2="459.42"/><line style="stroke:#181818;stroke-width:0.5;" x1="951.5" x2="1218.5" y1="467.42" y2="467.42"/><ellipse cx="961.5" cy="481.1641" fill="#84BE84" rx="3" ry="3" style="stroke:#038048;stroke-width:1.0;"/><text fill="#000000" font-family="sans-serif" font-size="14" lengthAdjust="spacing" textLength="212" x="970.5" y="484.9552">signInWithEmailAndPassword()</text><ellipse cx="961.5" cy="497.6524" fill="#84BE84" rx="3" ry="3" style="stroke:#038048;stroke-width:1.0;"/><text fill="#000000" font-family="sans-serif" font-size="14" lengthAdjust="spacing" textLength="243" x="970.5" y="501.4434">createUserWithEmailAndPassword()</text></g><!--class FetchCovidData--><g id="elem_FetchCovidData"><rect codeLine="92" fill="#F1F1F1" height="64.4883" id="FetchCovidData" rx="2.5" ry="2.5" style="stroke:#181818;stroke-width:0.5;" width="140" x="1391" y="622.89"/><ellipse cx="1406.45" cy="638.89" fill="#ADD1B2" rx="11" ry="11" style="stroke:#181818;stroke-width:1.0;"/><path d="M1408.9231,645.0331 Q1408.3421,645.3319 1407.7029,645.4813 Q1407.0638,645.6307 1406.3582,645.6307 Q1403.8514,645.6307 1402.5315,643.9789 Q1401.2117,642.327 1401.2117,639.2059 Q1401.2117,636.0765 1402.5315,634.4247 Q1403.8514,632.7728 1406.3582,632.7728 Q1407.0638,632.7728 1407.7112,632.9222 Q1408.3587,633.0716 1408.9231,633.3705 L1408.9231,636.0931 Q1408.2923,635.5121 1407.6988,635.2423 Q1407.1053,634.9725 1406.4744,634.9725 Q1405.1297,634.9725 1404.4449,636.0392 Q1403.7601,637.1058 1403.7601,639.2059 Q1403.7601,641.2977 1404.4449,642.3644 Q1405.1297,643.431 1406.4744,643.431 Q1407.1053,643.431 1407.6988,643.1612 Q1408.2923,642.8915 1408.9231,642.3104 Z " fill="#000000"/><text fill="#000000" font-family="sans-serif" font-size="14" lengthAdjust="spacing" textLength="107" x="1420.55" y="644.181">FetchCovidData</text><line style="stroke:#181818;stroke-width:0.5;" x1="1392" x2="1530" y1="654.89" y2="654.89"/><line style="stroke:#181818;stroke-width:0.5;" x1="1392" x2="1530" y1="662.89" y2="662.89"/><ellipse cx="1402" cy="676.6341" fill="#84BE84" rx="3" ry="3" style="stroke:#038048;stroke-width:1.0;"/><text fill="#000000" font-family="sans-serif" font-size="14" lengthAdjust="spacing" textLength="114" x="1411" y="680.4252">fetchCovidData()</text></g><!--class FetchPollenData--><g id="elem_FetchPollenData"><rect codeLine="95" fill="#F1F1F1" height="64.4883" id="FetchPollenData" rx="2.5" ry="2.5" style="stroke:#181818;stroke-width:0.5;" width="143" x="1565.5" y="622.89"/><ellipse cx="1580.95" cy="638.89" fill="#ADD1B2" rx="11" ry="11" style="stroke:#181818;stroke-width:1.0;"/><path d="M1583.4231,645.0331 Q1582.8421,645.3319 1582.2029,645.4813 Q1581.5638,645.6307 1580.8582,645.6307 Q1578.3514,645.6307 1577.0315,643.9789 Q1575.7117,642.327 1575.7117,639.2059 Q1575.7117,636.0765 1577.0315,634.4247 Q1578.3514,632.7728 1580.8582,632.7728 Q1581.5638,632.7728 1582.2112,632.9222 Q1582.8587,633.0716 1583.4231,633.3705 L1583.4231,636.0931 Q1582.7923,635.5121 1582.1988,635.2423 Q1581.6053,634.9725 1580.9744,634.9725 Q1579.6297,634.9725 1578.9449,636.0392 Q1578.2601,637.1058 1578.2601,639.2059 Q1578.2601,641.2977 1578.9449,642.3644 Q1579.6297,643.431 1580.9744,643.431 Q1581.6053,643.431 1582.1988,643.1612 Q1582.7923,642.8915 1583.4231,642.3104 Z " fill="#000000"/><text fill="#000000" font-family="sans-serif" font-size="14" lengthAdjust="spacing" textLength="110" x="1595.05" y="644.181">FetchPollenData</text><line style="stroke:#181818;stroke-width:0.5;" x1="1566.5" x2="1707.5" y1="654.89" y2="654.89"/><line style="stroke:#181818;stroke-width:0.5;" x1="1566.5" x2="1707.5" y1="662.89" y2="662.89"/><ellipse cx="1576.5" cy="676.6341" fill="#84BE84" rx="3" ry="3" style="stroke:#038048;stroke-width:1.0;"/><text fill="#000000" font-family="sans-serif" font-size="14" lengthAdjust="spacing" textLength="117" x="1585.5" y="680.4252">fetchPollenData()</text></g><!--class FetchAirPollutionData--><g id="elem_FetchAirPollutionData"><rect codeLine="98" fill="#F1F1F1" height="64.4883" id="FetchAirPollutionData" rx="2.5" ry="2.5" style="stroke:#181818;stroke-width:0.5;" width="182" x="951" y="622.89"/><ellipse cx="966.45" cy="638.89" fill="#ADD1B2" rx="11" ry="11" style="stroke:#181818;stroke-width:1.0;"/><path d="M968.9231,645.0331 Q968.3421,645.3319 967.7029,645.4813 Q967.0638,645.6307 966.3582,645.6307 Q963.8514,645.6307 962.5315,643.9789 Q961.2117,642.327 961.2117,639.2059 Q961.2117,636.0765 962.5315,634.4247 Q963.8514,632.7728 966.3582,632.7728 Q967.0638,632.7728 967.7112,632.9222 Q968.3587,633.0716 968.9231,633.3705 L968.9231,636.0931 Q968.2923,635.5121 967.6988,635.2423 Q967.1053,634.9725 966.4744,634.9725 Q965.1297,634.9725 964.4449,636.0392 Q963.7601,637.1058 963.7601,639.2059 Q963.7601,641.2977 964.4449,642.3644 Q965.1297,643.431 966.4744,643.431 Q967.1053,643.431 967.6988,643.1612 Q968.2923,642.8915 968.9231,642.3104 Z " fill="#000000"/><text fill="#000000" font-family="sans-serif" font-size="14" lengthAdjust="spacing" textLength="149" x="980.55" y="644.181">FetchAirPollutionData</text><line style="stroke:#181818;stroke-width:0.5;" x1="952" x2="1132" y1="654.89" y2="654.89"/><line style="stroke:#181818;stroke-width:0.5;" x1="952" x2="1132" y1="662.89" y2="662.89"/><ellipse cx="962" cy="676.6341" fill="#84BE84" rx="3" ry="3" style="stroke:#038048;stroke-width:1.0;"/><text fill="#000000" font-family="sans-serif" font-size="14" lengthAdjust="spacing" textLength="156" x="971" y="680.4252">fetchAirPollutionData()</text></g><!--class FetchWaterQualityData--><g id="elem_FetchWaterQualityData"><rect codeLine="101" fill="#F1F1F1" height="64.4883" id="FetchWaterQualityData" rx="2.5" ry="2.5" style="stroke:#181818;stroke-width:0.5;" width="188" x="1168" y="622.89"/><ellipse cx="1183.45" cy="638.89" fill="#ADD1B2" rx="11" ry="11" style="stroke:#181818;stroke-width:1.0;"/><path d="M1185.9231,645.0331 Q1185.3421,645.3319 1184.7029,645.4813 Q1184.0638,645.6307 1183.3582,645.6307 Q1180.8514,645.6307 1179.5315,643.9789 Q1178.2117,642.327 1178.2117,639.2059 Q1178.2117,636.0765 1179.5315,634.4247 Q1180.8514,632.7728 1183.3582,632.7728 Q1184.0638,632.7728 1184.7112,632.9222 Q1185.3587,633.0716 1185.9231,633.3705 L1185.9231,636.0931 Q1185.2923,635.5121 1184.6988,635.2423 Q1184.1053,634.9725 1183.4744,634.9725 Q1182.1297,634.9725 1181.4449,636.0392 Q1180.7601,637.1058 1180.7601,639.2059 Q1180.7601,641.2977 1181.4449,642.3644 Q1182.1297,643.431 1183.4744,643.431 Q1184.1053,643.431 1184.6988,643.1612 Q1185.2923,642.8915 1185.9231,642.3104 Z " fill="#000000"/><text fill="#000000" font-family="sans-serif" font-size="14" lengthAdjust="spacing" textLength="155" x="1197.55" y="644.181">FetchWaterQualityData</text><line style="stroke:#181818;stroke-width:0.5;" x1="1169" x2="1355" y1="654.89" y2="654.89"/><line style="stroke:#181818;stroke-width:0.5;" x1="1169" x2="1355" y1="662.89" y2="662.89"/><ellipse cx="1179" cy="676.6341" fill="#84BE84" rx="3" ry="3" style="stroke:#038048;stroke-width:1.0;"/><text fill="#000000" font-family="sans-serif" font-size="14" lengthAdjust="spacing" textLength="162" x="1188" y="680.4252">fetchWaterQualityData()</text></g><!--link App to SignIn--><g id="link_App_SignIn"><path codeLine="39" d="M246.59,138.69 C234.61,162.22 222.8324,185.3532 210.3324,209.9032 " fill="none" id="App-to-SignIn" style="stroke:#181818;stroke-width:1.0;"/><polygon fill="#181818" points="207.61,215.25,215.2582,209.0447,209.8787,210.7943,208.1291,205.4148,207.61,215.25" style="stroke:#181818;stroke-width:1.0;"/><text fill="#000000" font-family="sans-serif" font-size="13" lengthAdjust="spacing" textLength="79" x="231.51" y="182.0384">Navigates to</text></g><!--link App to SignUp--><g id="link_App_SignUp"><path codeLine="40" d="M312.93,138.69 C333.5,162.22 354.4512,186.1826 375.9112,210.7326 " fill="none" id="App-to-SignUp" style="stroke:#181818;stroke-width:1.0;"/><polygon fill="#181818" points="379.86,215.25,376.9484,205.8414,376.5693,211.4855,370.9252,211.1064,379.86,215.25" style="stroke:#181818;stroke-width:1.0;"/><text fill="#000000" font-family="sans-serif" font-size="13" lengthAdjust="spacing" textLength="79" x="351" y="182.0384">Navigates to</text></g><!--link SignIn to AuthContext--><g id="link_SignIn_AuthContext"><path codeLine="41" d="M240.02,329.67 C262.41,347.36 288.93,365.19 316,376.42 C339.22,386.06 349.71,372.79 372,384.42 C384.51,390.95 391.8169,396.0978 401.9769,406.2078 " fill="none" id="SignIn-to-AuthContext" style="stroke:#181818;stroke-width:1.0;"/><polygon fill="#181818" points="406.23,410.44,402.6718,401.2564,402.6858,406.9132,397.0289,406.9272,406.23,410.44" style="stroke:#181818;stroke-width:1.0;"/><text fill="#000000" font-family="sans-serif" font-size="13" lengthAdjust="spacing" textLength="29" x="317" y="372.9884">uses</text></g><!--link SignUp to AuthContext--><g id="link_SignUp_AuthContext"><path codeLine="42" d="M434.81,329.66 C437.44,355.1 439.9232,379.1318 442.5532,404.5818 " fill="none" id="SignUp-to-AuthContext" style="stroke:#181818;stroke-width:1.0;"/><polygon fill="#181818" points="443.17,410.55,446.2237,401.1865,442.656,405.5765,438.2661,402.0088,443.17,410.55" style="stroke:#181818;stroke-width:1.0;"/><text fill="#000000" font-family="sans-serif" font-size="13" lengthAdjust="spacing" textLength="29" x="440.6" y="372.9884">uses</text></g><!--link SignIn to CustomButton--><g id="link_SignIn_CustomButton"><path codeLine="43" d="M163.02,329.84 C161.64,346.31 163.81,363.37 174,376.42 C183.02,387.98 193.23,377.22 206,384.42 C225.29,395.3 239.1369,407.4552 253.3469,422.8952 " fill="none" id="SignIn-to-CustomButton" style="stroke:#181818;stroke-width:1.0;"/><polygon fill="#181818" points="257.41,427.31,254.2585,417.979,254.024,423.631,248.3721,423.3965,257.41,427.31" style="stroke:#181818;stroke-width:1.0;"/><text fill="#000000" font-family="sans-serif" font-size="13" lengthAdjust="spacing" textLength="29" x="175" y="372.9884">uses</text></g><!--link SignUp to CustomButton--><g id="link_SignUp_CustomButton"><path codeLine="44" d="M388.32,329.66 C365.71,360.9 341.6479,394.1595 321.2879,422.2895 " fill="none" id="SignUp-to-CustomButton" style="stroke:#181818;stroke-width:1.0;"/><polygon fill="#181818" points="317.77,427.15,326.2872,422.2046,320.7016,423.0996,319.8066,417.514,317.77,427.15" style="stroke:#181818;stroke-width:1.0;"/><text fill="#000000" font-family="sans-serif" font-size="13" lengthAdjust="spacing" textLength="29" x="364.2" y="372.9884">uses</text></g><!--link SignIn to FormField--><g id="link_SignIn_FormField"><path codeLine="45" d="M119.55,329.78 C112.81,339.01 106.95,348.99 103,359.42 C94.9,380.81 94.3452,400.3769 96.6652,421.1869 " fill="none" id="SignIn-to-FormField" style="stroke:#181818;stroke-width:1.0;"/><polygon fill="#181818" points="97.33,427.15,100.3082,417.7622,96.776,422.1808,92.3574,418.6486,97.33,427.15" style="stroke:#181818;stroke-width:1.0;"/><text fill="#000000" font-family="sans-serif" font-size="13" lengthAdjust="spacing" textLength="29" x="104" y="372.9884">uses</text></g><!--link SignUp to FormField--><g id="link_SignUp_FormField"><path codeLine="46" d="M321.41,321.84 C289.51,336.54 259.08,351.02 244,359.42 C226.34,369.26 222.29,372.46 206,384.42 C187.84,397.76 173.1667,409.3698 156.3567,423.2498 " fill="none" id="SignUp-to-FormField" style="stroke:#181818;stroke-width:1.0;"/><polygon fill="#181818" points="151.73,427.07,161.2168,424.4241,155.5855,423.8865,156.1232,418.2552,151.73,427.07" style="stroke:#181818;stroke-width:1.0;"/><text fill="#000000" font-family="sans-serif" font-size="13" lengthAdjust="spacing" textLength="29" x="245" y="372.9884">uses</text></g><!--link SignIn to FIREBASE_AUTH--><g id="link_SignIn_FIREBASE_AUTH"><path codeLine="56" d="M286.92,324.53 C292.63,326.36 298.35,328.01 304,329.42 C496.35,377.34 553.55,326.38 749,359.42 C777.17,364.19 782.86,371.48 811,376.42 C854.92,384.13 867.93,372.91 911,384.42 C947.01,394.05 979.3272,408.1902 1010.3572,424.1902 " fill="none" id="SignIn-to-FIREBASE_AUTH" style="stroke:#181818;stroke-width:1.0;"/><polygon fill="#181818" points="1015.69,426.94,1009.524,419.2602,1011.246,424.6485,1005.8576,426.3706,1015.69,426.94" style="stroke:#181818;stroke-width:1.0;"/><text fill="#000000" font-family="sans-serif" font-size="13" lengthAdjust="spacing" textLength="218" x="812" y="372.9884">calls signInWithEmailAndPassword</text></g><!--link SignUp to FIREBASE_AUTH--><g id="link_SignUp_FIREBASE_AUTH"><path codeLine="57" d="M536.73,324.23 C542.84,326.19 548.95,327.94 555,329.42 C607.34,342.23 994.97,328.37 1039,359.42 C1061.06,374.98 1071.1452,397.5741 1077.1552,421.2741 " fill="none" id="SignUp-to-FIREBASE_AUTH" style="stroke:#181818;stroke-width:1.0;"/><polygon fill="#181818" points="1078.63,427.09,1080.295,417.3829,1077.401,422.2434,1072.5405,419.3494,1078.63,427.09" style="stroke:#181818;stroke-width:1.0;"/><text fill="#000000" font-family="sans-serif" font-size="13" lengthAdjust="spacing" textLength="245" x="1055.64" y="372.9884">calls createUserWithEmailAndPassword</text></g><!--link Home to ButtonRow--><g id="link_Home_ButtonRow"><path codeLine="84" d="M608,296.78 C608,329.04 608,381.72 608,421.02 " fill="none" id="Home-to-ButtonRow" style="stroke:#181818;stroke-width:1.0;"/><polygon fill="#181818" points="608,427.02,612,418.02,608,422.02,604,418.02,608,427.02" style="stroke:#181818;stroke-width:1.0;"/><text fill="#000000" font-family="sans-serif" font-size="13" lengthAdjust="spacing" textLength="54" x="609" y="372.9884">contains</text></g><!--link ButtonRow to Button--><g id="link_ButtonRow_Button"><path codeLine="85" d="M608,508.65 C608,539.79 608,576.93 608,608.14 " fill="none" id="ButtonRow-to-Button" style="stroke:#181818;stroke-width:1.0;"/><polygon fill="#181818" points="608,614.14,612,605.14,608,609.14,604,605.14,608,614.14" style="stroke:#181818;stroke-width:1.0;"/><text fill="#000000" font-family="sans-serif" font-size="13" lengthAdjust="spacing" textLength="54" x="609" y="568.4584">contains</text></g><!--link Home to API--><g id="link_Home_API"><path codeLine="86" d="M631.28,296.78 C659.25,324.82 702.903,368.5718 740.683,406.4518 " fill="none" id="Home-to-API" style="stroke:#181818;stroke-width:1.0;"/><polygon fill="#181818" points="744.92,410.7,741.3966,401.5029,741.3891,407.1598,735.7323,407.1523,744.92,410.7" style="stroke:#181818;stroke-width:1.0;"/><text fill="#000000" font-family="sans-serif" font-size="13" lengthAdjust="spacing" textLength="29" x="711.29" y="372.9884">uses</text></g><!--link Home to AuthContext--><g id="link_Home_AuthContext"><path codeLine="87" d="M588.82,296.78 C565.78,324.82 530.1395,368.1845 499.0095,406.0645 " fill="none" id="Home-to-AuthContext" style="stroke:#181818;stroke-width:1.0;"/><polygon fill="#181818" points="495.2,410.7,504.0046,406.2864,498.3746,406.8371,497.8239,401.2071,495.2,410.7" style="stroke:#181818;stroke-width:1.0;"/><text fill="#000000" font-family="sans-serif" font-size="13" lengthAdjust="spacing" textLength="29" x="534.27" y="372.9884">uses</text></g><!--link API to FetchCovidData--><g id="link_API_FetchCovidData"><path codeLine="107" d="M895.34,518.52 C908.4,523.92 921.85,528.77 935,532.4 C1123.76,584.46 1193.53,501.59 1373,579.89 C1395.35,589.64 1412.0896,602.7759 1427.9796,618.2359 " fill="none" id="API-to-FetchCovidData" style="stroke:#181818;stroke-width:1.0;"/><polygon fill="#181818" points="1432.28,622.42,1428.6187,613.277,1428.6963,618.9333,1423.04,619.0109,1432.28,622.42" style="stroke:#181818;stroke-width:1.0;"/><text fill="#000000" font-family="sans-serif" font-size="13" lengthAdjust="spacing" textLength="29" x="1352.98" y="568.4584">calls</text></g><!--link API to FetchPollenData--><g id="link_API_FetchPollenData"><path codeLine="108" d="M895.18,519.1 C908.27,524.41 921.77,529.08 935,532.4 C1067.52,565.66 1423.61,523.36 1548,579.89 C1570.35,590.04 1587.2663,603.2409 1603.3963,618.6109 " fill="none" id="API-to-FetchPollenData" style="stroke:#181818;stroke-width:1.0;"/><polygon fill="#181818" points="1607.74,622.75,1603.9838,613.6456,1604.1202,619.3008,1598.465,619.4372,1607.74,622.75" style="stroke:#181818;stroke-width:1.0;"/><text fill="#000000" font-family="sans-serif" font-size="13" lengthAdjust="spacing" textLength="29" x="1524.21" y="568.4584">calls</text></g><!--link API to FetchAirPollutionData--><g id="link_API_FetchAirPollutionData"><path codeLine="109" d="M874.29,525.24 C915.83,557.17 961.5127,592.2738 996.1627,618.9038 " fill="none" id="API-to-FetchAirPollutionData" style="stroke:#181818;stroke-width:1.0;"/><polygon fill="#181818" points="1000.92,622.56,996.2215,613.9041,996.9556,619.5132,991.3465,620.2472,1000.92,622.56" style="stroke:#181818;stroke-width:1.0;"/><text fill="#000000" font-family="sans-serif" font-size="13" lengthAdjust="spacing" textLength="29" x="929.73" y="568.4584">calls</text></g><!--link API to FetchWaterQualityData--><g id="link_API_FetchWaterQualityData"><path codeLine="110" d="M895.43,516.88 C908.53,522.58 921.97,527.94 935,532.4 C1028.01,564.2 1060.58,541.34 1151,579.89 C1176.38,590.71 1197.3111,603.9624 1217.6211,618.8524 " fill="none" id="API-to-FetchWaterQualityData" style="stroke:#181818;stroke-width:1.0;"/><polygon fill="#181818" points="1222.46,622.4,1217.5667,613.8527,1218.4276,619.4437,1212.8366,620.3046,1222.46,622.4" style="stroke:#181818;stroke-width:1.0;"/><text fill="#000000" font-family="sans-serif" font-size="13" lengthAdjust="spacing" textLength="29" x="1131.35" y="568.4584">calls</text></g><!--SRC=[nLJ1ZjiW4BtdAr0kkrMrFv139MysrkQoIhE9zbWHUsAZOh009wsg_VSEZbEmCSwggbHV4fWtR-3DFEx84noP0B85cXdoGWqx0KdgccIoggK0OVIifjbtMW2P3q5pycj6yCiurRhDkgpjzrc1o47TVt8xWfvOGGtiv2ihn5gCnvvb1LtaVURHNtAcA-ZcK35pa_U2BULvfPHKznLeZVTR46qK4qMazhx-FxMNZJQoUcoCaJTkNrAHSzWef1mJC9MgIXdm_2CiI_mfO0S_p1XLqfXoAON1i4_MQ52zbSNry-sGF3nykNPpGUOldKgQ63aFCAZwAARBjp3_C8Z5ijfXzlLjJCVJ4pf6D0tgc9pICPeH10fqTtLZoXGSg8RstEX1bg7diE0QRr2ezhzpPGJSDsUwtguUazVLjsI_U_PxfjjZlp5JhYhAU2Bo3UBFKkN-K6GAKFuzzdS2sRNO5w9N5Q-QKSurYTSCXHfdc3vFNynBixRoJ72oIR9P_yNRvZWclLChMUi5ERHe7VecTB5XXeDRIX6rhpsubtW4a-58drZ-H0tr3z56Df9p4AEXX2aRRUoGZ0BUK5hrjQ6ScPyUu1-z0FOjR5lhDBLjHIxAHESK5tB04FM7oKhJSvgBZFdU7mwRUcn4PiNmfi5kfzVjWPDwmjzioVimrNKco0sQ5YGFUnTGH9eR40rx7115Xy1NRmkyVMjqoMeziwArdkqhT3Njl0_mT8WWWij6SC5T7Eut]--></g></svg>